<svg width="123" height="39" viewBox="0 0 123 39" fill="none" xmlns="http://www.w3.org/2000/svg">
<path d="M56.4521 16C56.1588 16 55.9121 15.9 55.7121 15.7C55.5121 15.5 55.4121 15.2533 55.4121 14.96V1.42C55.4121 1.11333 55.5121 0.866666 55.7121 0.679999C55.9121 0.48 56.1588 0.38 56.4521 0.38H60.0721C61.2188 0.38 62.2588 0.573333 63.1921 0.959999C64.1388 1.33333 64.9588 1.87333 65.6521 2.58C66.3454 3.27333 66.8788 4.09333 67.2521 5.04C67.6254 5.98667 67.8121 7.03333 67.8121 8.18C67.8121 9.32667 67.6254 10.38 67.2521 11.34C66.8788 12.2867 66.3454 13.1133 65.6521 13.82C64.9588 14.5133 64.1388 15.0533 63.1921 15.44C62.2588 15.8133 61.2188 16 60.0721 16H56.4521ZM57.4921 14.16H60.0721C61.1921 14.16 62.1788 13.9067 63.0321 13.4C63.8988 12.88 64.5788 12.1733 65.0721 11.28C65.5654 10.3733 65.8121 9.34 65.8121 8.18C65.8121 7.00667 65.5654 5.97333 65.0721 5.08C64.5788 4.18667 63.8988 3.48667 63.0321 2.98C62.1788 2.47333 61.1921 2.22 60.0721 2.22H57.4921V14.16ZM75.1762 16.1C74.2562 16.1 73.4295 15.9067 72.6961 15.52C71.9761 15.12 71.4028 14.54 70.9761 13.78C70.5628 13.02 70.3561 12.0867 70.3561 10.98V6.06C70.3561 5.76667 70.4495 5.52667 70.6361 5.34C70.8361 5.14 71.0828 5.04 71.3761 5.04C71.6695 5.04 71.9095 5.14 72.0961 5.34C72.2961 5.52667 72.3961 5.76667 72.3961 6.06V10.98C72.3961 11.7267 72.5361 12.3467 72.8161 12.84C73.0961 13.32 73.4761 13.68 73.9561 13.92C74.4361 14.1467 74.9761 14.26 75.5761 14.26C76.1495 14.26 76.6562 14.1467 77.0961 13.92C77.5495 13.6933 77.9095 13.3867 78.1762 13C78.4428 12.6133 78.5761 12.18 78.5761 11.7H79.8362C79.8362 12.5267 79.6295 13.2733 79.2162 13.94C78.8162 14.6067 78.2628 15.1333 77.5561 15.52C76.8628 15.9067 76.0695 16.1 75.1762 16.1ZM79.5961 16C79.3028 16 79.0562 15.9067 78.8561 15.72C78.6695 15.52 78.5761 15.2733 78.5761 14.98V6.06C78.5761 5.75333 78.6695 5.50667 78.8561 5.32C79.0562 5.13333 79.3028 5.04 79.5961 5.04C79.9028 5.04 80.1495 5.13333 80.3361 5.32C80.5228 5.50667 80.6161 5.75333 80.6161 6.06V14.98C80.6161 15.2733 80.5228 15.52 80.3361 15.72C80.1495 15.9067 79.9028 16 79.5961 16ZM87.889 16C87.2223 16 86.6223 15.8333 86.089 15.5C85.5556 15.1533 85.1356 14.6867 84.829 14.1C84.5223 13.5133 84.369 12.8533 84.369 12.12V2.58C84.369 2.28667 84.4623 2.04667 84.649 1.86C84.8356 1.67333 85.0756 1.58 85.369 1.58C85.6623 1.58 85.9023 1.67333 86.089 1.86C86.2756 2.04667 86.369 2.28667 86.369 2.58V12.12C86.369 12.6533 86.5156 13.1 86.809 13.46C87.1023 13.82 87.4623 14 87.889 14H88.569C88.809 14 89.009 14.0933 89.169 14.28C89.3423 14.4667 89.429 14.7067 89.429 15C89.429 15.2933 89.3156 15.5333 89.089 15.72C88.8756 15.9067 88.5956 16 88.249 16H87.889ZM83.449 7.18C83.169 7.18 82.9423 7.1 82.769 6.94C82.5956 6.78 82.509 6.58 82.509 6.34C82.509 6.07333 82.5956 5.86 82.769 5.7C82.9423 5.54 83.169 5.46 83.449 5.46H88.069C88.349 5.46 88.5756 5.54 88.749 5.7C88.9223 5.86 89.009 6.07333 89.009 6.34C89.009 6.58 88.9223 6.78 88.749 6.94C88.5756 7.1 88.349 7.18 88.069 7.18H83.449ZM96.1963 16.08C95.223 16.08 94.3496 15.84 93.5763 15.36C92.803 14.8667 92.1896 14.2067 91.7363 13.38C91.2963 12.54 91.0763 11.5933 91.0763 10.54C91.0763 9.48667 91.3163 8.54 91.7963 7.7C92.2896 6.86 92.9496 6.2 93.7763 5.72C94.6163 5.22667 95.5563 4.98 96.5963 4.98C97.6363 4.98 98.5696 5.22667 99.3963 5.72C100.223 6.2 100.876 6.86 101.356 7.7C101.85 8.54 102.096 9.48667 102.096 10.54H101.316C101.316 11.5933 101.09 12.54 100.636 13.38C100.196 14.2067 99.5896 14.8667 98.8163 15.36C98.043 15.84 97.1696 16.08 96.1963 16.08ZM96.5963 14.28C97.2763 14.28 97.883 14.12 98.4163 13.8C98.9496 13.4667 99.3696 13.02 99.6763 12.46C99.983 11.8867 100.136 11.2467 100.136 10.54C100.136 9.82 99.983 9.18 99.6763 8.62C99.3696 8.04667 98.9496 7.6 98.4163 7.28C97.883 6.94667 97.2763 6.78 96.5963 6.78C95.9296 6.78 95.323 6.94667 94.7763 7.28C94.243 7.6 93.8163 8.04667 93.4963 8.62C93.1896 9.18 93.0363 9.82 93.0363 10.54C93.0363 11.2467 93.1896 11.8867 93.4963 12.46C93.8163 13.02 94.243 13.4667 94.7763 13.8C95.323 14.12 95.9296 14.28 96.5963 14.28ZM101.076 16.02C100.783 16.02 100.536 15.9267 100.336 15.74C100.15 15.54 100.056 15.2933 100.056 15V11.94L100.436 9.82L102.096 10.54V15C102.096 15.2933 101.996 15.54 101.796 15.74C101.61 15.9267 101.37 16.02 101.076 16.02ZM58.8019 38C58.5085 38 58.2619 37.9 58.0619 37.7C57.8619 37.5 57.7619 37.2533 57.7619 36.96V23.42C57.7619 23.1133 57.8619 22.8667 58.0619 22.68C58.2619 22.48 58.5085 22.38 58.8019 22.38H67.8419C68.1485 22.38 68.3952 22.4733 68.5819 22.66C68.7685 22.8333 68.8619 23.0667 68.8619 23.36C68.8619 23.64 68.7685 23.8667 68.5819 24.04C68.3952 24.2133 68.1485 24.3 67.8419 24.3H59.8419V29.16H65.5819C65.8885 29.16 66.1352 29.2533 66.3219 29.44C66.5085 29.6133 66.6019 29.84 66.6019 30.12C66.6019 30.4 66.5085 30.6333 66.3219 30.82C66.1352 30.9933 65.8885 31.08 65.5819 31.08H59.8419V36.96C59.8419 37.2533 59.7419 37.5 59.5419 37.7C59.3419 37.9 59.0952 38 58.8019 38ZM72.2419 38C71.9485 38 71.7019 37.9067 71.5019 37.72C71.3152 37.52 71.2219 37.2733 71.2219 36.98V28.08C71.2219 27.7733 71.3152 27.5267 71.5019 27.34C71.7019 27.1533 71.9485 27.06 72.2419 27.06C72.5485 27.06 72.7952 27.1533 72.9819 27.34C73.1685 27.5267 73.2619 27.7733 73.2619 28.08V36.98C73.2619 37.2733 73.1685 37.52 72.9819 37.72C72.7952 37.9067 72.5485 38 72.2419 38ZM72.2419 25.28C71.8819 25.28 71.5685 25.1533 71.3019 24.9C71.0485 24.6333 70.9219 24.32 70.9219 23.96C70.9219 23.6 71.0485 23.2933 71.3019 23.04C71.5685 22.7733 71.8819 22.64 72.2419 22.64C72.6019 22.64 72.9085 22.7733 73.1619 23.04C73.4285 23.2933 73.5619 23.6 73.5619 23.96C73.5619 24.32 73.4285 24.6333 73.1619 24.9C72.9085 25.1533 72.6019 25.28 72.2419 25.28ZM79.357 38C78.7703 38 78.2503 37.84 77.797 37.52C77.3437 37.2 76.9903 36.7667 76.737 36.22C76.4837 35.66 76.357 35.02 76.357 34.3V23.38C76.357 23.0867 76.4503 22.8467 76.637 22.66C76.8237 22.4733 77.0637 22.38 77.357 22.38C77.6503 22.38 77.8903 22.4733 78.077 22.66C78.2637 22.8467 78.357 23.0867 78.357 23.38V34.3C78.357 34.7933 78.4503 35.2 78.637 35.52C78.8237 35.84 79.0637 36 79.357 36H79.857C80.1237 36 80.337 36.0933 80.497 36.28C80.6703 36.4667 80.757 36.7067 80.757 37C80.757 37.2933 80.6303 37.5333 80.377 37.72C80.1237 37.9067 79.797 38 79.397 38H79.357ZM96.8131 38.02C96.5198 38.02 96.2731 37.9267 96.0731 37.74C95.8864 37.54 95.7931 37.2933 95.7931 37V31.28C95.7931 30.44 95.5864 29.82 95.1731 29.42C94.7598 29.0067 94.2198 28.8 93.5531 28.8C92.8598 28.8 92.2864 29.04 91.8331 29.52C91.3931 30 91.1731 30.6133 91.1731 31.36H89.5131C89.5131 30.4933 89.6998 29.7333 90.0731 29.08C90.4464 28.4133 90.9664 27.8933 91.6331 27.52C92.3131 27.1467 93.0864 26.96 93.9531 26.96C94.7131 26.96 95.3864 27.1267 95.9731 27.46C96.5598 27.7933 97.0131 28.2867 97.3331 28.94C97.6664 29.58 97.8331 30.36 97.8331 31.28V37C97.8331 37.2933 97.7398 37.54 97.5531 37.74C97.3664 37.9267 97.1198 38.02 96.8131 38.02ZM83.4731 38.02C83.1798 38.02 82.9331 37.9267 82.7331 37.74C82.5464 37.54 82.4531 37.2933 82.4531 37V28.1C82.4531 27.7933 82.5464 27.5467 82.7331 27.36C82.9331 27.1733 83.1798 27.08 83.4731 27.08C83.7798 27.08 84.0264 27.1733 84.2131 27.36C84.3998 27.5467 84.4931 27.7933 84.4931 28.1V37C84.4931 37.2933 84.3998 37.54 84.2131 37.74C84.0264 37.9267 83.7798 38.02 83.4731 38.02ZM90.1531 38.02C89.8598 38.02 89.6131 37.9267 89.4131 37.74C89.2264 37.54 89.1331 37.2933 89.1331 37V31.28C89.1331 30.44 88.9264 29.82 88.5131 29.42C88.0998 29.0067 87.5598 28.8 86.8931 28.8C86.1998 28.8 85.6264 29.04 85.1731 29.52C84.7198 30 84.4931 30.6133 84.4931 31.36H83.2331C83.2331 30.4933 83.4064 29.7333 83.7531 29.08C84.0998 28.4133 84.5798 27.8933 85.1931 27.52C85.8064 27.1467 86.5064 26.96 87.2931 26.96C88.0531 26.96 88.7264 27.1267 89.3131 27.46C89.8998 27.7933 90.3531 28.2867 90.6731 28.94C91.0064 29.58 91.1731 30.36 91.1731 31.28V37C91.1731 37.2933 91.0798 37.54 90.8931 37.74C90.7064 37.9267 90.4598 38.02 90.1531 38.02Z" fill="white"/>
<path fill-rule="evenodd" clip-rule="evenodd" d="M15.8464 7.96289H8.58307e-06L6.67216 14.635H22.5185L15.8464 7.96289ZM6.67215 14.635V30.4814L0 23.8093V7.96289L6.67215 14.635Z" fill="#DB0000"/>
<path fill-rule="evenodd" clip-rule="evenodd" d="M6.67215 30.4814L22.5185 30.4814L15.8464 23.8093L-7.62939e-06 23.8093L6.67215 30.4814ZM15.8464 23.8093L15.8464 7.96292L22.5185 14.6351L22.5185 30.4814L15.8464 23.8093Z" fill="white"/>
</svg>
